<mxfile host="app.diagrams.net" agent="Mozilla/5.0 (Windows NT 10.0; Win64; x64) AppleWebKit/537.36 (KHTML, like Gecko) Chrome/132.0.0.0 Safari/537.36" version="26.0.11">
  <diagram name="1 oldal" id="QPKSVuA1kWo0BdA6RJBZ">
    <mxGraphModel dx="1741" dy="961" grid="1" gridSize="10" guides="1" tooltips="1" connect="1" arrows="1" fold="1" page="1" pageScale="1" pageWidth="827" pageHeight="1169" math="0" shadow="0">
      <root>
        <mxCell id="0" />
        <mxCell id="1" parent="0" />
        <mxCell id="JCj-JerqRikzEphCBUMQ-4" style="edgeStyle=orthogonalEdgeStyle;rounded=0;orthogonalLoop=1;jettySize=auto;html=1;exitX=0;exitY=1;exitDx=0;exitDy=0;" edge="1" parent="1" source="JCj-JerqRikzEphCBUMQ-1" target="JCj-JerqRikzEphCBUMQ-2">
          <mxGeometry relative="1" as="geometry" />
        </mxCell>
        <mxCell id="JCj-JerqRikzEphCBUMQ-1" value="&lt;font style=&quot;font-size: 17px;&quot;&gt;Webfejlesztés&lt;/font&gt;" style="rounded=1;whiteSpace=wrap;html=1;" vertex="1" parent="1">
          <mxGeometry x="354" y="50" width="120" height="60" as="geometry" />
        </mxCell>
        <mxCell id="JCj-JerqRikzEphCBUMQ-2" value="&lt;font style=&quot;font-size: 18px;&quot;&gt;Kliens oldal&lt;/font&gt;" style="rounded=1;whiteSpace=wrap;html=1;" vertex="1" parent="1">
          <mxGeometry x="234" y="150" width="120" height="60" as="geometry" />
        </mxCell>
        <mxCell id="JCj-JerqRikzEphCBUMQ-7" style="edgeStyle=orthogonalEdgeStyle;rounded=0;orthogonalLoop=1;jettySize=auto;html=1;exitX=0.5;exitY=1;exitDx=0;exitDy=0;" edge="1" parent="1" source="JCj-JerqRikzEphCBUMQ-3" target="JCj-JerqRikzEphCBUMQ-6">
          <mxGeometry relative="1" as="geometry" />
        </mxCell>
        <mxCell id="JCj-JerqRikzEphCBUMQ-3" value="&lt;font style=&quot;font-size: 18px;&quot;&gt;Szerver oldal&lt;/font&gt;" style="rounded=1;whiteSpace=wrap;html=1;" vertex="1" parent="1">
          <mxGeometry x="474" y="150" width="120" height="60" as="geometry" />
        </mxCell>
        <mxCell id="JCj-JerqRikzEphCBUMQ-5" style="edgeStyle=orthogonalEdgeStyle;rounded=0;orthogonalLoop=1;jettySize=auto;html=1;exitX=1;exitY=1;exitDx=0;exitDy=0;entryX=0.567;entryY=0.033;entryDx=0;entryDy=0;entryPerimeter=0;" edge="1" parent="1" source="JCj-JerqRikzEphCBUMQ-1" target="JCj-JerqRikzEphCBUMQ-3">
          <mxGeometry relative="1" as="geometry" />
        </mxCell>
        <mxCell id="JCj-JerqRikzEphCBUMQ-29" style="edgeStyle=orthogonalEdgeStyle;rounded=0;orthogonalLoop=1;jettySize=auto;html=1;exitX=1;exitY=0.5;exitDx=0;exitDy=0;entryX=0.5;entryY=0;entryDx=0;entryDy=0;" edge="1" parent="1" source="JCj-JerqRikzEphCBUMQ-6" target="JCj-JerqRikzEphCBUMQ-28">
          <mxGeometry relative="1" as="geometry">
            <Array as="points">
              <mxPoint x="620" y="270" />
              <mxPoint x="620" y="540" />
              <mxPoint x="1007" y="540" />
            </Array>
          </mxGeometry>
        </mxCell>
        <mxCell id="JCj-JerqRikzEphCBUMQ-6" value="" style="image;html=1;image=img/lib/clip_art/computers/Server_128x128.png" vertex="1" parent="1">
          <mxGeometry x="494" y="230" width="80" height="80" as="geometry" />
        </mxCell>
        <mxCell id="JCj-JerqRikzEphCBUMQ-8" value="" style="image;points=[];aspect=fixed;html=1;align=center;shadow=0;dashed=0;image=img/lib/allied_telesis/computer_and_terminals/Personal_Computer_with_Server.svg;" vertex="1" parent="1">
          <mxGeometry x="264" y="230" width="62.400000000000006" height="62.400000000000006" as="geometry" />
        </mxCell>
        <mxCell id="JCj-JerqRikzEphCBUMQ-9" style="edgeStyle=orthogonalEdgeStyle;rounded=0;orthogonalLoop=1;jettySize=auto;html=1;exitX=0.5;exitY=1;exitDx=0;exitDy=0;entryX=0.529;entryY=0.064;entryDx=0;entryDy=0;entryPerimeter=0;" edge="1" parent="1" source="JCj-JerqRikzEphCBUMQ-2" target="JCj-JerqRikzEphCBUMQ-8">
          <mxGeometry relative="1" as="geometry" />
        </mxCell>
        <mxCell id="JCj-JerqRikzEphCBUMQ-13" style="edgeStyle=orthogonalEdgeStyle;rounded=0;orthogonalLoop=1;jettySize=auto;html=1;exitX=1;exitY=0.5;exitDx=0;exitDy=0;" edge="1" parent="1" source="JCj-JerqRikzEphCBUMQ-10" target="JCj-JerqRikzEphCBUMQ-8">
          <mxGeometry relative="1" as="geometry" />
        </mxCell>
        <mxCell id="JCj-JerqRikzEphCBUMQ-10" value="&lt;font style=&quot;font-size: 17px;&quot;&gt;HTML&lt;/font&gt;" style="text;html=1;align=center;verticalAlign=middle;whiteSpace=wrap;rounded=0;" vertex="1" parent="1">
          <mxGeometry x="170" y="246" width="60" height="30" as="geometry" />
        </mxCell>
        <mxCell id="JCj-JerqRikzEphCBUMQ-15" style="edgeStyle=orthogonalEdgeStyle;rounded=0;orthogonalLoop=1;jettySize=auto;html=1;exitX=0.5;exitY=0;exitDx=0;exitDy=0;" edge="1" parent="1" source="JCj-JerqRikzEphCBUMQ-11" target="JCj-JerqRikzEphCBUMQ-8">
          <mxGeometry relative="1" as="geometry" />
        </mxCell>
        <mxCell id="JCj-JerqRikzEphCBUMQ-11" value="&lt;font style=&quot;font-size: 17px;&quot;&gt;CSS&lt;/font&gt;" style="text;html=1;align=center;verticalAlign=middle;whiteSpace=wrap;rounded=0;" vertex="1" parent="1">
          <mxGeometry x="264" y="320" width="60" height="30" as="geometry" />
        </mxCell>
        <mxCell id="JCj-JerqRikzEphCBUMQ-12" value="&lt;font style=&quot;font-size: 17px;&quot;&gt;JavaScript&lt;/font&gt;" style="text;html=1;align=center;verticalAlign=middle;whiteSpace=wrap;rounded=0;" vertex="1" parent="1">
          <mxGeometry x="130" y="326" width="86" height="24" as="geometry" />
        </mxCell>
        <mxCell id="JCj-JerqRikzEphCBUMQ-14" style="edgeStyle=orthogonalEdgeStyle;rounded=0;orthogonalLoop=1;jettySize=auto;html=1;exitX=1;exitY=0.25;exitDx=0;exitDy=0;entryX=0;entryY=0.833;entryDx=0;entryDy=0;entryPerimeter=0;" edge="1" parent="1" source="JCj-JerqRikzEphCBUMQ-12" target="JCj-JerqRikzEphCBUMQ-8">
          <mxGeometry relative="1" as="geometry">
            <Array as="points">
              <mxPoint x="216" y="316" />
              <mxPoint x="240" y="316" />
              <mxPoint x="240" y="290" />
              <mxPoint x="250" y="290" />
              <mxPoint x="250" y="282" />
            </Array>
          </mxGeometry>
        </mxCell>
        <mxCell id="JCj-JerqRikzEphCBUMQ-18" style="edgeStyle=orthogonalEdgeStyle;rounded=0;orthogonalLoop=1;jettySize=auto;html=1;exitX=0.5;exitY=0;exitDx=0;exitDy=0;" edge="1" parent="1" source="JCj-JerqRikzEphCBUMQ-16" target="JCj-JerqRikzEphCBUMQ-6">
          <mxGeometry relative="1" as="geometry" />
        </mxCell>
        <mxCell id="JCj-JerqRikzEphCBUMQ-16" value="" style="image;html=1;image=img/lib/clip_art/computers/Database_128x128.png" vertex="1" parent="1">
          <mxGeometry x="494" y="340" width="80" height="80" as="geometry" />
        </mxCell>
        <mxCell id="JCj-JerqRikzEphCBUMQ-61" style="edgeStyle=orthogonalEdgeStyle;rounded=0;orthogonalLoop=1;jettySize=auto;html=1;exitX=0.5;exitY=1;exitDx=0;exitDy=0;entryX=0.5;entryY=0;entryDx=0;entryDy=0;" edge="1" parent="1" source="JCj-JerqRikzEphCBUMQ-19" target="JCj-JerqRikzEphCBUMQ-52">
          <mxGeometry relative="1" as="geometry" />
        </mxCell>
        <mxCell id="JCj-JerqRikzEphCBUMQ-19" value="&lt;font style=&quot;font-size: 17px;&quot;&gt;Adatbázis&lt;/font&gt;" style="text;html=1;align=center;verticalAlign=middle;whiteSpace=wrap;rounded=0;" vertex="1" parent="1">
          <mxGeometry x="486" y="420" width="96" height="30" as="geometry" />
        </mxCell>
        <mxCell id="JCj-JerqRikzEphCBUMQ-21" value="" style="endArrow=classic;startArrow=classic;html=1;rounded=0;entryX=0;entryY=0.5;entryDx=0;entryDy=0;exitX=0.989;exitY=0.662;exitDx=0;exitDy=0;exitPerimeter=0;" edge="1" parent="1" source="JCj-JerqRikzEphCBUMQ-8" target="JCj-JerqRikzEphCBUMQ-6">
          <mxGeometry width="50" height="50" relative="1" as="geometry">
            <mxPoint x="370" y="300" as="sourcePoint" />
            <mxPoint x="420" y="250" as="targetPoint" />
          </mxGeometry>
        </mxCell>
        <mxCell id="JCj-JerqRikzEphCBUMQ-22" value="&lt;font&gt;HTML&lt;/font&gt;" style="text;html=1;align=center;verticalAlign=middle;whiteSpace=wrap;rounded=0;" vertex="1" parent="1">
          <mxGeometry x="340" y="240" width="40" height="25" as="geometry" />
        </mxCell>
        <mxCell id="JCj-JerqRikzEphCBUMQ-23" value="&lt;font&gt;CSS&lt;/font&gt;" style="text;html=1;align=center;verticalAlign=middle;whiteSpace=wrap;rounded=0;" vertex="1" parent="1">
          <mxGeometry x="374" y="240" width="40" height="25" as="geometry" />
        </mxCell>
        <mxCell id="JCj-JerqRikzEphCBUMQ-24" value="&lt;font&gt;JavaScript&lt;/font&gt;" style="text;html=1;align=center;verticalAlign=middle;whiteSpace=wrap;rounded=0;" vertex="1" parent="1">
          <mxGeometry x="414" y="240" width="66" height="24" as="geometry" />
        </mxCell>
        <mxCell id="JCj-JerqRikzEphCBUMQ-28" value="&lt;font style=&quot;font-size: 20px;&quot;&gt;Programnyelvek&lt;/font&gt;" style="swimlane;whiteSpace=wrap;html=1;startSize=40;" vertex="1" parent="1">
          <mxGeometry x="840" y="585" width="333" height="350" as="geometry">
            <mxRectangle x="627" y="220" width="130" height="30" as="alternateBounds" />
          </mxGeometry>
        </mxCell>
        <mxCell id="JCj-JerqRikzEphCBUMQ-37" value="&lt;font style=&quot;font-size: 24px;&quot;&gt;Python&lt;/font&gt;" style="text;html=1;align=center;verticalAlign=middle;resizable=0;points=[];autosize=1;strokeColor=#6c8ebf;fillColor=#dae8fc;" vertex="1" parent="JCj-JerqRikzEphCBUMQ-28">
          <mxGeometry y="60" width="100" height="40" as="geometry" />
        </mxCell>
        <mxCell id="JCj-JerqRikzEphCBUMQ-39" value="&lt;font style=&quot;font-size: 24px;&quot;&gt;PHP&lt;/font&gt;" style="text;html=1;align=center;verticalAlign=middle;resizable=0;points=[];autosize=1;strokeColor=none;fillColor=none;" vertex="1" parent="JCj-JerqRikzEphCBUMQ-28">
          <mxGeometry x="15" y="220" width="70" height="40" as="geometry" />
        </mxCell>
        <mxCell id="JCj-JerqRikzEphCBUMQ-45" value="&lt;font style=&quot;font-size: 20px;&quot;&gt;Flask&lt;/font&gt;" style="text;html=1;align=center;verticalAlign=middle;resizable=0;points=[];autosize=1;strokeColor=#6c8ebf;fillColor=#dae8fc;" vertex="1" parent="JCj-JerqRikzEphCBUMQ-28">
          <mxGeometry x="168" y="59.999999999999986" width="70" height="40" as="geometry" />
        </mxCell>
        <mxCell id="JCj-JerqRikzEphCBUMQ-46" value="&lt;font style=&quot;font-size: 20px;&quot;&gt;DJango&lt;/font&gt;" style="text;html=1;align=center;verticalAlign=middle;resizable=0;points=[];autosize=1;" vertex="1" parent="JCj-JerqRikzEphCBUMQ-28">
          <mxGeometry x="158" y="108.8" width="90" height="40" as="geometry" />
        </mxCell>
        <mxCell id="JCj-JerqRikzEphCBUMQ-47" value="&lt;font style=&quot;font-size: 20px;&quot;&gt;FastAPI&lt;/font&gt;" style="text;html=1;align=center;verticalAlign=middle;resizable=0;points=[];autosize=1;" vertex="1" parent="JCj-JerqRikzEphCBUMQ-28">
          <mxGeometry x="158" y="158.8" width="90" height="40" as="geometry" />
        </mxCell>
        <mxCell id="JCj-JerqRikzEphCBUMQ-49" value="" style="endArrow=classic;html=1;rounded=0;entryX=0.003;entryY=0.489;entryDx=0;entryDy=0;entryPerimeter=0;" edge="1" parent="JCj-JerqRikzEphCBUMQ-28" source="JCj-JerqRikzEphCBUMQ-37" target="JCj-JerqRikzEphCBUMQ-45">
          <mxGeometry width="50" height="50" relative="1" as="geometry">
            <mxPoint x="103" y="88.8" as="sourcePoint" />
            <mxPoint x="153" y="38.8" as="targetPoint" />
          </mxGeometry>
        </mxCell>
        <mxCell id="JCj-JerqRikzEphCBUMQ-50" value="" style="endArrow=classic;html=1;rounded=0;entryX=0.013;entryY=0.302;entryDx=0;entryDy=0;entryPerimeter=0;" edge="1" parent="JCj-JerqRikzEphCBUMQ-28" target="JCj-JerqRikzEphCBUMQ-46">
          <mxGeometry width="50" height="50" relative="1" as="geometry">
            <mxPoint x="100" y="78.8" as="sourcePoint" />
            <mxPoint x="168" y="89.8" as="targetPoint" />
          </mxGeometry>
        </mxCell>
        <mxCell id="JCj-JerqRikzEphCBUMQ-51" value="" style="endArrow=classic;html=1;rounded=0;entryX=-0.009;entryY=0.213;entryDx=0;entryDy=0;entryPerimeter=0;" edge="1" parent="JCj-JerqRikzEphCBUMQ-28" target="JCj-JerqRikzEphCBUMQ-47">
          <mxGeometry width="50" height="50" relative="1" as="geometry">
            <mxPoint x="103" y="78.8" as="sourcePoint" />
            <mxPoint x="158" y="138.8" as="targetPoint" />
          </mxGeometry>
        </mxCell>
        <mxCell id="JCj-JerqRikzEphCBUMQ-52" value="&lt;font style=&quot;font-size: 20px;&quot;&gt;Programnyelvek&lt;/font&gt;" style="swimlane;whiteSpace=wrap;html=1;startSize=40;" vertex="1" parent="1">
          <mxGeometry x="367.5" y="585" width="333" height="350" as="geometry">
            <mxRectangle x="627" y="220" width="130" height="30" as="alternateBounds" />
          </mxGeometry>
        </mxCell>
        <mxCell id="JCj-JerqRikzEphCBUMQ-53" value="&lt;font style=&quot;font-size: 24px;&quot;&gt;SQLite&lt;/font&gt;" style="text;html=1;align=center;verticalAlign=middle;resizable=0;points=[];autosize=1;strokeColor=#6c8ebf;fillColor=#dae8fc;" vertex="1" parent="JCj-JerqRikzEphCBUMQ-52">
          <mxGeometry y="60" width="100" height="40" as="geometry" />
        </mxCell>
        <mxCell id="JCj-JerqRikzEphCBUMQ-54" value="&lt;font style=&quot;font-size: 24px;&quot;&gt;MYSQL&lt;/font&gt;" style="text;html=1;align=center;verticalAlign=middle;resizable=0;points=[];autosize=1;strokeColor=none;fillColor=none;" vertex="1" parent="JCj-JerqRikzEphCBUMQ-52">
          <mxGeometry x="2.5" y="120" width="110" height="40" as="geometry" />
        </mxCell>
        <mxCell id="JCj-JerqRikzEphCBUMQ-62" value="&lt;font style=&quot;font-size: 24px;&quot;&gt;PostGreSQL&lt;/font&gt;" style="text;html=1;align=center;verticalAlign=middle;resizable=0;points=[];autosize=1;strokeColor=none;fillColor=none;" vertex="1" parent="JCj-JerqRikzEphCBUMQ-52">
          <mxGeometry y="170" width="160" height="40" as="geometry" />
        </mxCell>
        <mxCell id="JCj-JerqRikzEphCBUMQ-63" value="&lt;span style=&quot;font-size: 24px;&quot;&gt;MariaDB&lt;/span&gt;" style="text;html=1;align=center;verticalAlign=middle;resizable=0;points=[];autosize=1;strokeColor=none;fillColor=none;" vertex="1" parent="JCj-JerqRikzEphCBUMQ-52">
          <mxGeometry x="2.5" y="225" width="120" height="40" as="geometry" />
        </mxCell>
      </root>
    </mxGraphModel>
  </diagram>
</mxfile>
